<svg id="Capa_1" enable-background="new 0 0 512 512" height="512" viewBox="0 0 512 512" width="512" xmlns="http://www.w3.org/2000/svg"><g><path d="m32.848 460.148c-19.647 6.206-32.848 24.219-32.848 44.824v7.028h241v-60.636c-30.7-2.731-59.05-13.751-82.787-30.812z"/><path d="m479.152 460.148-125.365-39.597c-23.737 17.061-52.087 28.082-82.787 30.813v60.636h241v-7.028c0-20.605-13.2-38.618-32.848-44.824z"/><path d="m88.07 247.624v-30.981c0-92.597 75.333-167.929 167.93-167.929s167.93 75.332 167.93 167.929v30.981c13.092-9.988 24.373-22.268 33.229-36.335 13.808-21.934 21.106-47.301 21.106-73.358.001-76.056-61.874-137.931-137.929-137.931h-168.672c-76.055 0-137.93 61.875-137.93 137.93 0 26.058 7.299 51.425 21.107 73.358 8.856 14.068 20.137 26.347 33.229 36.336z"/><path d="m256 78.714c-48.38 0-91.015 25.042-115.643 62.84 9.883 9.151 27.896 22.348 53.462 32.925 65.261 27 140.762 22.664 196.946 12.765-13.508-61.976-68.797-108.53-134.765-108.53z"/><path d="m393.93 284.112v-66.959c-30.025 5.21-58.843 7.835-86.135 7.835-11.853 0-23.413-.493-34.67-1.48-34.046-2.988-65.375-10.487-93.115-22.289-24.603-10.467-42.122-22.546-53.523-32.039-5.443 14.805-8.417 30.793-8.417 47.463v67.47c0 25.26 6.832 48.952 18.736 69.336h152.928v30h-129.323c24.811 23.884 58.513 38.593 95.589 38.593 76.055-.001 137.93-61.876 137.93-137.93z"/><path d="m136.806 353.448h-48.736v-78.808h-30v108.809h102.34c-9.179-8.838-17.139-18.931-23.604-30.001z"/></g></svg>
