<svg width="48" height="24" viewBox="0 0 48 24" fill="none" xmlns="http://www.w3.org/2000/svg">
<path fill-rule="evenodd" clip-rule="evenodd" d="M33.2312 16.7688C32.9229 16.4605 32.9229 15.9606 33.2312 15.6523L36.8835 12L33.2312 8.34772C32.9229 8.03941 32.9229 7.53954 33.2312 7.23123C33.5395 6.92292 34.0394 6.92292 34.3477 7.23123L38.5582 11.4418C38.8666 11.7501 38.8666 12.2499 38.5582 12.5582L34.3477 16.7688C34.0394 17.0771 33.5395 17.0771 33.2312 16.7688Z" fill="#858585"/>
<path fill-rule="evenodd" clip-rule="evenodd" d="M14.7688 7.23123C15.0771 7.53954 15.0771 8.03941 14.7688 8.34772L11.1165 12L14.7688 15.6523C15.0771 15.9606 15.0771 16.4605 14.7688 16.7688C14.4605 17.0771 13.9606 17.0771 13.6523 16.7688L9.44176 12.5582C9.13345 12.2499 9.13345 11.7501 9.44176 11.4418L13.6523 7.23123C13.9606 6.92292 14.4605 6.92292 14.7688 7.23123Z" fill="#858585"/>
</svg>
