<svg width="62" height="62" viewBox="0 0 62 62" fill="none" xmlns="http://www.w3.org/2000/svg">
<path fill-rule="evenodd" clip-rule="evenodd" d="M40.9694 27.7753L33.703 37.1497C33.4054 37.5465 32.959 37.7945 32.463 37.8441C31.967 37.9185 31.471 37.7697 31.0742 37.4721L24.0805 31.9913L17.8061 40.1505C17.4589 40.6217 16.8885 40.8697 16.3429 40.8697C15.9461 40.8697 15.5493 40.7457 15.2021 40.4729C14.3837 39.8529 14.2349 38.6873 14.8549 37.8689L22.2949 28.2217C22.5925 27.8249 23.0389 27.5769 23.5349 27.5273C24.0309 27.4529 24.5269 27.6017 24.9238 27.8993L31.9174 33.3801L38.0182 25.4937C38.663 24.6753 39.8286 24.5265 40.647 25.1713C41.4406 25.7913 41.5894 26.9569 40.9694 27.7753ZM53.6174 21.8481C52.303 22.4681 50.815 22.8153 49.2774 22.8153C43.4742 22.8153 38.7374 18.0785 38.7374 12.2753C38.7374 10.6881 39.0846 9.20008 39.7294 7.86088C37.0014 7.29048 33.827 7.01768 30.1566 7.01768C12.2757 7.01768 5.92694 13.3417 5.92694 31.2473C5.92694 49.1529 12.2757 55.4769 30.1566 55.4769C48.0622 55.4769 54.411 49.1529 54.411 31.2473C54.411 27.6513 54.163 24.5265 53.6174 21.8481Z" fill="#C4C4C4"/>
<path fill-rule="evenodd" clip-rule="evenodd" d="M49.2774 17.8553C50.319 17.8553 51.311 17.5577 52.1294 17.0617C53.7414 16.0945 54.8326 14.3089 54.8326 12.2753C54.8326 9.20008 52.3526 6.69528 49.2774 6.69528C47.2686 6.69528 45.5078 7.76168 44.5158 9.37368C43.995 10.2169 43.6974 11.2089 43.6974 12.2753C43.6974 15.3505 46.2022 17.8553 49.2774 17.8553Z" fill="#C4C4C4"/>
</svg>
