<svg width="56" height="49" viewBox="0 0 56 49" fill="none" xmlns="http://www.w3.org/2000/svg">
<path d="M29.9033 22.3326C34.3618 24.4468 37.1592 28.6798 37.1592 33.8438C37.1592 41.5105 30.5418 47.3175 21.8079 47.3175H0V0H21.3726C29.7626 0 35.8844 5.11932 35.8844 12.1096C35.8844 16.3381 33.5156 20.1424 29.901 22.3326H29.9033ZM24.2682 32.2944C24.2682 29.7805 22.4219 28.0123 19.5999 28.0123H12.5181V36.6167H19.5999C22.4219 36.6167 24.2682 34.8462 24.2682 32.2944ZM23.5136 14.2685C23.5136 11.8126 21.8325 10.1493 19.1065 10.1493H12.5181V18.3876H19.1065C21.8325 18.3876 23.5136 16.7243 23.5136 14.2685Z" fill="#3B82F6"/>
<path d="M56 42.475C56 45.998 53.5196 48.5298 50.0926 48.5298C46.6655 48.5298 44.1472 45.9801 44.1472 42.475C44.1472 38.9698 46.6633 36.418 50.0926 36.418C53.5218 36.418 56 38.9497 56 42.475Z" fill="#3B82F6"/>
</svg>
