<svg width="68" height="76" viewBox="0 0 68 76" fill="none" xmlns="http://www.w3.org/2000/svg">
<path fill-rule="evenodd" clip-rule="evenodd" d="M33.838 0C35.5258 0 37.1839 0.444034 38.6459 1.28752L62.8676 15.2729C64.3295 16.1169 65.5435 17.3309 66.3875 18.7928C67.2316 20.2547 67.676 21.9132 67.676 23.6013V51.5676C67.676 55.0046 65.8441 58.1793 62.8665 59.8967L38.6459 73.8849C37.2528 74.6886 35.6817 75.1296 34.0764 75.1694C33.9979 75.1765 33.9183 75.1801 33.8379 75.1801C33.7575 75.1801 33.6779 75.1765 33.5993 75.1694C31.9941 75.1296 30.4224 74.6881 29.0294 73.8844L4.80853 59.8996C3.34658 59.0555 2.13257 57.8415 1.28851 56.3796C0.444435 54.9177 3.8147e-05 53.2593 0 51.5711V23.6013C0 20.1647 1.83259 16.9897 4.80957 15.2722L29.0301 1.28752C30.4921 0.444034 32.1502 0 33.838 0ZM7.43142 55.3567L31.2151 69.0892V39.1004L5.24566 24.106V51.5711C5.24568 52.3384 5.44768 53.0922 5.83135 53.7567C6.21502 54.4212 6.76691 54.9731 7.43142 55.3567ZM36.4608 69.0892V39.1004L50.2429 31.1428C50.2773 31.124 50.3113 31.1043 50.3449 31.0839L62.4304 24.106V51.5676C62.4304 53.1315 61.5975 54.573 60.2457 55.3526L36.4608 69.0892ZM43.7325 28.8446L17.7479 13.8591L7.86865 19.5632L33.838 34.5575L43.7325 28.8446ZM48.9795 25.8151L59.8073 19.5632L36.0244 5.83115C35.3597 5.44785 34.6053 5.24566 33.838 5.24566C33.0708 5.24566 32.3163 5.44785 31.6517 5.83115L22.9948 10.8295L48.9795 25.8151Z" fill="#3B82F6"/>
<path fill-rule="evenodd" clip-rule="evenodd" d="M56.6397 38.1323C55.9008 36.8053 54.2691 36.3535 52.9952 37.1231L42.3291 43.5671C41.0552 44.3367 40.6215 46.0364 41.3603 47.3633C42.0992 48.6903 43.7309 49.1421 45.0048 48.3725L55.6709 41.9285C56.9448 41.1589 57.3785 39.4592 56.6397 38.1323Z" fill="#3B82F6"/>
</svg>
