<svg width="552" height="136" viewBox="0 0 552 136" fill="none" xmlns="http://www.w3.org/2000/svg">
<path d="M0 26H552" stroke="#F5F5F5" stroke-opacity="0.53"/>
<path d="M0 56H552" stroke="#F5F5F5" stroke-opacity="0.53"/>
<path d="M0 84H552" stroke="#F5F5F5" stroke-opacity="0.53"/>
<path d="M0 114H552" stroke="#F5F5F5" stroke-opacity="0.53"/>
<rect x="13" y="96" width="8" height="40" rx="4" fill="#F1F1F1"/>
<rect x="21" y="67" width="8" height="69" rx="4" fill="#3B82F6"/>
<rect x="69" y="45" width="8" height="91" rx="4" fill="#F1F1F1"/>
<rect x="77" width="8" height="136" rx="4" fill="#3B82F6"/>
<rect x="125" y="84" width="8" height="52" rx="4" fill="#F1F1F1"/>
<rect x="133" y="67" width="8" height="69" rx="4" fill="#3B82F6"/>
<rect x="181" y="73" width="8" height="63" rx="4" fill="#F1F1F1"/>
<rect x="189" y="33" width="8" height="103" rx="4" fill="#3B82F6"/>
<rect x="237" y="107" width="8" height="29" rx="4" fill="#F1F1F1"/>
<rect x="245" y="57" width="8" height="79" rx="4" fill="#3B82F6"/>
<rect x="293" y="77" width="8" height="59" rx="4" fill="#F1F1F1"/>
<rect x="301" y="67" width="8" height="69" rx="4" fill="#3B82F6"/>
<rect x="349" y="89" width="8" height="47" rx="4" fill="#F1F1F1"/>
<rect x="357" y="57" width="8" height="79" rx="4" fill="#3B82F6"/>
<rect x="405" y="62" width="8" height="74" rx="4" fill="#F1F1F1"/>
<rect x="413" y="28" width="8" height="108" rx="4" fill="#3B82F6"/>
<rect x="461" y="92" width="8" height="44" rx="4" fill="#F1F1F1"/>
<rect x="469" y="62" width="8" height="74" rx="4" fill="#3B82F6"/>
<rect x="517" y="73" width="8" height="63" rx="4" fill="#F1F1F1"/>
<rect x="525" y="20" width="8" height="116" rx="4" fill="#3B82F6"/>
</svg>
